<?xml version="1.0" standalone="no"?>
<!DOCTYPE svg PUBLIC "-//W3C//DTD SVG 1.1//EN" "http://www.w3.org/Graphics/SVG/1.1/DTD/svg11.dtd">
<svg width="600" height="400" version="1.1" xmlns="http://www.w3.org/2000/svg" xmlns:xlink="http://www.w3.org/1999/xlink" xmlns:svg="http://www.w3.org/2000/svg">
<rect x="32" y="32" width="32" height="32" style="fill:#FD2718" />
<text x="48" y="48" font-size="11" style="font-family:Arial;fill:#000000" text-anchor="middle" dy="3.66666666666667">90</text>
<rect x="66" y="32" width="32" height="32" style="fill:#F0D8D6" />
<text x="82" y="48" font-size="11" style="font-family:Arial;fill:#000000" text-anchor="middle" dy="3.66666666666667">10</text>
<rect x="100" y="32" width="32" height="32" style="fill:#EEEEEE" />
<text x="154" y="52" font-size="11" style="font-family:Arial;fill:#000000">HEALTH-BGI</text>
<rect x="32" y="66" width="32" height="32" style="fill:#F0D8D6" />
<text x="48" y="82" font-size="11" style="font-family:Arial;fill:#000000" text-anchor="middle" dy="3.66666666666667">10</text>
<rect x="66" y="66" width="32" height="32" style="fill:#FC3D30" />
<text x="82" y="82" font-size="11" style="font-family:Arial;fill:#000000" text-anchor="middle" dy="3.66666666666667">80</text>
<rect x="100" y="66" width="32" height="32" style="fill:#F0D8D6" />
<text x="116" y="82" font-size="11" style="font-family:Arial;fill:#000000" text-anchor="middle" dy="3.66666666666667">10</text>
<text x="154" y="86" font-size="11" style="font-family:Arial;fill:#000000">LIVER-BGI</text>
<rect x="32" y="100" width="32" height="32" style="fill:#EEEEEE" />
<rect x="66" y="100" width="32" height="32" style="fill:#F0D8D6" />
<text x="82" y="116" font-size="11" style="font-family:Arial;fill:#000000" text-anchor="middle" dy="3.66666666666667">10</text>
<rect x="100" y="100" width="32" height="32" style="fill:#FD2718" />
<text x="116" y="116" font-size="11" style="font-family:Arial;fill:#000000" text-anchor="middle" dy="3.66666666666667">90</text>
<text x="154" y="120" font-size="11" style="font-family:Arial;fill:#000000">LUNG-BGI</text>
<text x="44" y="152" font-size="11" style="font-family:Arial;fill:#000000" text-anchor="start" transform=" rotate(90 44 152)" >HEALTH-BGI</text>
<text x="78" y="152" font-size="11" style="font-family:Arial;fill:#000000" text-anchor="start" transform=" rotate(90 78 152)" >LIVER-BGI</text>
<text x="112" y="152" font-size="11" style="font-family:Arial;fill:#000000" text-anchor="start" transform=" rotate(90 112 152)" >LUNG-BGI</text>
</svg>
